<svg width="16" height="16" viewBox="0 0 16 16" xmlns="http://www.w3.org/2000/svg">
    <g clip-path="url(#clip0_615_3985)">
        <path d="M12.408 6.49895L11.4848 4.50257L9.48846 3.60003L11.4848 2.68083L12.408 0.684448L13.3106 2.68083L15.3069 3.60003L13.3106 4.50257L12.408 6.49895ZM12.408 15.2989L11.5015 13.2859L9.48846 12.3834L11.5015 11.4808L12.408 9.46778L13.3106 11.4808L15.3236 12.3834L13.3106 13.2859L12.408 15.2989ZM6.02398 13.3308L4.35948 9.64787L0.676514 7.98337L4.35948 6.31887L6.02398 2.6359L7.68846 6.31887L11.3714 7.98337L7.68846 9.64787L6.02398 13.3308ZM6.02398 10.2834L6.74065 8.70003L8.32398 7.98337L6.74065 7.2667L6.02398 5.68337L5.30731 7.2667L3.72398 7.98337L5.30731 8.70003L6.02398 10.2834Z"
              fill="#03182F"/>
    </g>
</svg>
